<?xml version="1.0" standalone="no"?>
<!DOCTYPE svg PUBLIC "-//W3C//DTD SVG 20010904//EN"
 "http://www.w3.org/TR/2001/REC-SVG-20010904/DTD/svg10.dtd">
<svg version="1.0" xmlns="http://www.w3.org/2000/svg"
 width="32.000000pt" height="32.000000pt" viewBox="0 0 32.000000 32.000000"
 preserveAspectRatio="xMidYMid meet">

<g transform="translate(0.000000,32.000000) scale(0.100000,-0.100000)"
fill="#000000" stroke="none">
<path d="M63 301 c-126 -79 -43 -272 100 -234 41 11 42 11 78 -28 38 -41 66
-50 76 -23 4 10 -9 30 -35 57 -40 41 -41 43 -30 83 22 81 -28 152 -113 161
-32 3 -52 -1 -76 -16z m138 -40 c33 -33 40 -92 15 -126 -14 -19 -15 -19 -33
-2 -28 24 -88 22 -106 -4 l-15 -20 -16 23 c-9 12 -16 40 -16 61 0 88 108 131
171 68z"/>
<path d="M100 235 c-15 -18 -6 -61 16 -69 24 -9 54 12 54 37 0 43 -44 63 -70
32z"/>
</g>
</svg>
